<svg width="50" height="50" viewBox="0 0 50 50" fill="none" xmlns="http://www.w3.org/2000/svg">
<g clip-path="url(#clip0_421_637)">
<path d="M0 14.4C0 9.35953 0 6.83929 0.980941 4.91409C1.8438 3.22063 3.22063 1.8438 4.91409 0.980941C6.83929 0 9.35953 0 14.4 0H35.6C40.6405 0 43.1607 0 45.0859 0.980941C46.7794 1.8438 48.1562 3.22063 49.0191 4.91409C50 6.83929 50 9.35953 50 14.4V35.6C50 40.6405 50 43.1607 49.0191 45.0859C48.1562 46.7794 46.7794 48.1562 45.0859 49.0191C43.1607 50 40.6405 50 35.6 50H14.4C9.35953 50 6.83929 50 4.91409 49.0191C3.22063 48.1562 1.8438 46.7794 0.980941 45.0859C0 43.1607 0 40.6405 0 35.6V14.4Z" fill="white"/>
<path d="M0 14.4C0 9.35953 0 6.83929 0.980941 4.91409C1.8438 3.22063 3.22063 1.8438 4.91409 0.980941C6.83929 0 9.35953 0 14.4 0H35.6C40.6405 0 43.1607 0 45.0859 0.980941C46.7794 1.8438 48.1562 3.22063 49.0191 4.91409C50 6.83929 50 9.35953 50 14.4V35.6C50 40.6405 50 43.1607 49.0191 45.0859C48.1562 46.7794 46.7794 48.1562 45.0859 49.0191C43.1607 50 40.6405 50 35.6 50H14.4C9.35953 50 6.83929 50 4.91409 49.0191C3.22063 48.1562 1.8438 46.7794 0.980941 45.0859C0 43.1607 0 40.6405 0 35.6V14.4Z" fill="url(#paint0_linear_421_637)"/>
<path fill-rule="evenodd" clip-rule="evenodd" d="M25.0005 3.1845C12.9528 3.1845 3.18615 12.9511 3.18615 24.9988C3.18615 37.0465 12.9528 46.8131 25.0005 46.8131C37.0482 46.8131 46.8148 37.0465 46.8148 24.9988C46.8148 12.9511 37.0482 3.1845 25.0005 3.1845ZM3.06479 24.9988C3.06479 12.8841 12.8857 3.06314 25.0005 3.06314C37.1152 3.06314 46.9361 12.8841 46.9361 24.9988C46.9361 37.1136 37.1152 46.9345 25.0005 46.9345C12.8857 46.9345 3.06479 37.1136 3.06479 24.9988Z" fill="#D0D5DD"/>
<path fill-rule="evenodd" clip-rule="evenodd" d="M25 18.8714C21.6152 18.8714 18.8714 21.6152 18.8714 25C18.8714 28.3848 21.6152 31.1286 25 31.1286C28.3848 31.1286 31.1286 28.3848 31.1286 25C31.1286 21.6152 28.3848 18.8714 25 18.8714ZM18.75 25C18.75 21.5482 21.5482 18.75 25 18.75C28.4518 18.75 31.25 21.5482 31.25 25C31.25 28.4518 28.4518 31.25 25 31.25C21.5482 31.25 18.75 28.4518 18.75 25Z" fill="#D0D5DD"/>
<path fill-rule="evenodd" clip-rule="evenodd" d="M25 20.8115C22.6876 20.8115 20.8131 22.686 20.8131 24.9983C20.8131 27.3107 22.6876 29.1852 25 29.1852C27.3124 29.1852 29.1869 27.3107 29.1869 24.9983C29.1869 22.686 27.3124 20.8115 25 20.8115ZM20.6917 24.9983C20.6917 22.619 22.6206 20.6901 25 20.6901C27.3794 20.6901 29.3082 22.619 29.3082 24.9983C29.3082 27.3777 27.3794 29.3066 25 29.3066C22.6206 29.3066 20.6917 27.3777 20.6917 24.9983Z" fill="#D0D5DD"/>
<path d="M24.9395 0H25.0608V50H24.9395V0Z" fill="#D0D5DD"/>
<path d="M50 24.9381L50 25.0595L-5.30478e-09 25.0595L0 24.9381L50 24.9381Z" fill="#D0D5DD"/>
<path d="M41.5645 0H41.6858V50H41.5645V0Z" fill="#D0D5DD"/>
<path d="M16.626 0H16.7473V50H16.626V0Z" fill="#D0D5DD"/>
<path d="M33.252 0H33.3733V50H33.252V0Z" fill="#D0D5DD"/>
<path d="M8.3125 0H8.43386V50H8.3125V0Z" fill="#D0D5DD"/>
<path d="M50 41.5658L50 41.6871L-5.30478e-09 41.6871L0 41.5658L50 41.5658Z" fill="#D0D5DD"/>
<path d="M50 16.6276L50 16.749L-5.30478e-09 16.749L0 16.6276L50 16.6276Z" fill="#D0D5DD"/>
<path d="M50 33.252L50 33.3733L-5.30478e-09 33.3733L0 33.252L50 33.252Z" fill="#D0D5DD"/>
<path d="M50 8.31381L50 8.43517L-5.30478e-09 8.43517L0 8.31381L50 8.31381Z" fill="#D0D5DD"/>
<g filter="url(#filter0_dd_421_637)">
<circle cx="25" cy="25" r="12.5" fill="url(#paint1_linear_421_637)"/>
</g>
<g filter="url(#filter1_b_421_637)">
<path d="M0 25H50V37.2C50 41.6804 50 43.9206 49.1281 45.6319C48.3611 47.1372 47.1372 48.3611 45.6319 49.1281C43.9206 50 41.6804 50 37.2 50H12.8C8.31958 50 6.07937 50 4.36808 49.1281C2.86278 48.3611 1.63893 47.1372 0.871948 45.6319C0 43.9206 0 41.6804 0 37.2V25Z" fill="white" fill-opacity="0.2"/>
</g>
</g>
<path d="M0.1125 14.4C0.1125 11.8779 0.112587 9.9931 0.234744 8.49798C0.356793 7.00417 0.600136 5.90926 1.08118 4.96516C1.93325 3.29287 3.29287 1.93325 4.96516 1.08118C5.90926 0.600136 7.00417 0.356793 8.49798 0.234744C9.9931 0.112587 11.8779 0.1125 14.4 0.1125H35.6C38.1221 0.1125 40.0069 0.112587 41.502 0.234744C42.9958 0.356793 44.0907 0.600136 45.0348 1.08118C46.7071 1.93325 48.0667 3.29287 48.9188 4.96516C49.3999 5.90926 49.6432 7.00417 49.7653 8.49798C49.8874 9.9931 49.8875 11.8779 49.8875 14.4V35.6C49.8875 38.1221 49.8874 40.0069 49.7653 41.502C49.6432 42.9958 49.3999 44.0907 48.9188 45.0348C48.0667 46.7071 46.7071 48.0667 45.0348 48.9188C44.0907 49.3999 42.9958 49.6432 41.502 49.7653C40.0069 49.8874 38.1221 49.8875 35.6 49.8875H14.4C11.8779 49.8875 9.9931 49.8874 8.49798 49.7653C7.00417 49.6432 5.90926 49.3999 4.96516 48.9188C3.29287 48.0667 1.93325 46.7071 1.08118 45.0348C0.600136 44.0907 0.356793 42.9958 0.234744 41.502C0.112587 40.0069 0.1125 38.1221 0.1125 35.6V14.4Z" stroke="#D0D5DD" stroke-width="0.225"/>
<defs>
<filter id="filter0_dd_421_637" x="9.125" y="10.25" width="31.75" height="31.75" filterUnits="userSpaceOnUse" color-interpolation-filters="sRGB">
<feFlood flood-opacity="0" result="BackgroundImageFix"/>
<feColorMatrix in="SourceAlpha" type="matrix" values="0 0 0 0 0 0 0 0 0 0 0 0 0 0 0 0 0 0 127 0" result="hardAlpha"/>
<feOffset dy="1.125"/>
<feGaussianBlur stdDeviation="1.125"/>
<feColorMatrix type="matrix" values="0 0 0 0 0.0627451 0 0 0 0 0.0941176 0 0 0 0 0.156863 0 0 0 0.06 0"/>
<feBlend mode="normal" in2="BackgroundImageFix" result="effect1_dropShadow_421_637"/>
<feColorMatrix in="SourceAlpha" type="matrix" values="0 0 0 0 0 0 0 0 0 0 0 0 0 0 0 0 0 0 127 0" result="hardAlpha"/>
<feOffset dy="1.125"/>
<feGaussianBlur stdDeviation="1.6875"/>
<feColorMatrix type="matrix" values="0 0 0 0 0.0627451 0 0 0 0 0.0941176 0 0 0 0 0.156863 0 0 0 0.1 0"/>
<feBlend mode="normal" in2="effect1_dropShadow_421_637" result="effect2_dropShadow_421_637"/>
<feBlend mode="normal" in="SourceGraphic" in2="effect2_dropShadow_421_637" result="shape"/>
</filter>
<filter id="filter1_b_421_637" x="-5.625" y="19.375" width="61.25" height="36.25" filterUnits="userSpaceOnUse" color-interpolation-filters="sRGB">
<feFlood flood-opacity="0" result="BackgroundImageFix"/>
<feGaussianBlur in="BackgroundImageFix" stdDeviation="2.8125"/>
<feComposite in2="SourceAlpha" operator="in" result="effect1_backgroundBlur_421_637"/>
<feBlend mode="normal" in="SourceGraphic" in2="effect1_backgroundBlur_421_637" result="shape"/>
</filter>
<linearGradient id="paint0_linear_421_637" x1="25" y1="0" x2="25" y2="50" gradientUnits="userSpaceOnUse">
<stop stop-color="white"/>
<stop offset="1" stop-color="#D0D5DD"/>
</linearGradient>
<linearGradient id="paint1_linear_421_637" x1="18.75" y1="37.5" x2="31.25" y2="12.5" gradientUnits="userSpaceOnUse">
<stop stop-color="#53389E"/>
<stop offset="1" stop-color="#6941C6"/>
</linearGradient>
<clipPath id="clip0_421_637">
<path d="M0 14.4C0 9.35953 0 6.83929 0.980941 4.91409C1.8438 3.22063 3.22063 1.8438 4.91409 0.980941C6.83929 0 9.35953 0 14.4 0H35.6C40.6405 0 43.1607 0 45.0859 0.980941C46.7794 1.8438 48.1562 3.22063 49.0191 4.91409C50 6.83929 50 9.35953 50 14.4V35.6C50 40.6405 50 43.1607 49.0191 45.0859C48.1562 46.7794 46.7794 48.1562 45.0859 49.0191C43.1607 50 40.6405 50 35.6 50H14.4C9.35953 50 6.83929 50 4.91409 49.0191C3.22063 48.1562 1.8438 46.7794 0.980941 45.0859C0 43.1607 0 40.6405 0 35.6V14.4Z" fill="white"/>
</clipPath>
</defs>
</svg>
